<svg width="24" height="24" viewBox="0 0 24 24" fill="none" xmlns="http://www.w3.org/2000/svg">
<path d="M19.7807 8.78073H19.2807C19.2807 8.91333 19.3334 9.04051 19.4272 9.13428L19.7807 8.78073ZM19.7807 4.21927H20.2807C20.2807 3.94313 20.0569 3.71927 19.7807 3.71927V4.21927ZM15.2193 4.21927L14.8657 4.57283C14.9595 4.6666 15.0867 4.71927 15.2193 4.71927V4.21927ZM12 1L12.3536 0.646447C12.1583 0.451185 11.8417 0.451184 11.6464 0.646447L12 1ZM8.78073 4.21927V4.71927C8.91333 4.71927 9.04051 4.6666 9.13428 4.57283L8.78073 4.21927ZM4.21927 4.21927V3.71927C3.94313 3.71927 3.71927 3.94313 3.71927 4.21927H4.21927ZM4.21927 8.78073L4.57283 9.13428C4.6666 9.04051 4.71927 8.91333 4.71927 8.78073H4.21927ZM1 12L0.646447 11.6464C0.451184 11.8417 0.451185 12.1583 0.646447 12.3536L1 12ZM4.21927 15.2193H4.71927C4.71927 15.0867 4.6666 14.9595 4.57283 14.8657L4.21927 15.2193ZM4.21927 19.7807H3.71927C3.71927 20.0569 3.94313 20.2807 4.21927 20.2807V19.7807ZM8.78073 19.7807L9.13428 19.4272C9.04051 19.3334 8.91333 19.2807 8.78073 19.2807V19.7807ZM12 23L11.6464 23.3536C11.8417 23.5488 12.1583 23.5488 12.3536 23.3536L12 23ZM15.2193 19.7807V19.2807C15.0867 19.2807 14.9595 19.3334 14.8657 19.4272L15.2193 19.7807ZM19.7807 19.7807V20.2807C20.0569 20.2807 20.2807 20.0569 20.2807 19.7807H19.7807ZM19.7807 15.2193L19.4272 14.8657C19.3334 14.9595 19.2807 15.0867 19.2807 15.2193H19.7807ZM23 12L23.3536 12.3536C23.5488 12.1583 23.5488 11.8417 23.3536 11.6464L23 12ZM17.5 12C17.5 15.0376 15.0376 17.5 12 17.5V18.5C15.5899 18.5 18.5 15.5899 18.5 12H17.5ZM12 17.5C8.96243 17.5 6.5 15.0376 6.5 12H5.5C5.5 15.5899 8.41015 18.5 12 18.5V17.5ZM6.5 12C6.5 8.96243 8.96243 6.5 12 6.5V5.5C8.41015 5.5 5.5 8.41015 5.5 12H6.5ZM12 6.5C15.0376 6.5 17.5 8.96243 17.5 12H18.5C18.5 8.41015 15.5899 5.5 12 5.5V6.5ZM20.2807 8.78073V4.21927H19.2807V8.78073H20.2807ZM19.7807 3.71927H15.2193V4.71927H19.7807V3.71927ZM15.5728 3.86572L12.3536 0.646447L11.6464 1.35355L14.8657 4.57283L15.5728 3.86572ZM11.6464 0.646447L8.42717 3.86572L9.13428 4.57283L12.3536 1.35355L11.6464 0.646447ZM8.78073 3.71927H4.21927V4.71927H8.78073V3.71927ZM3.71927 4.21927V8.78073H4.71927V4.21927H3.71927ZM3.86572 8.42717L0.646447 11.6464L1.35355 12.3536L4.57283 9.13428L3.86572 8.42717ZM0.646447 12.3536L3.86572 15.5728L4.57283 14.8657L1.35355 11.6464L0.646447 12.3536ZM3.71927 15.2193V19.7807H4.71927V15.2193H3.71927ZM4.21927 20.2807H8.78073V19.2807H4.21927V20.2807ZM8.42717 20.1343L11.6464 23.3536L12.3536 22.6464L9.13428 19.4272L8.42717 20.1343ZM12.3536 23.3536L15.5728 20.1343L14.8657 19.4272L11.6464 22.6464L12.3536 23.3536ZM15.2193 20.2807H19.7807V19.2807H15.2193V20.2807ZM20.2807 19.7807V15.2193H19.2807V19.7807H20.2807ZM20.1343 15.5728L23.3536 12.3536L22.6464 11.6464L19.4272 14.8657L20.1343 15.5728ZM23.3536 11.6464L20.1343 8.42717L19.4272 9.13428L22.6464 12.3536L23.3536 11.6464Z" fill="#F15E2F" fill-opacity="0.5"/>
</svg>
