<svg width="16" height="16" viewBox="0 0 16 16" fill="none" xmlns="http://www.w3.org/2000/svg">
<path d="M4 8.5C4 7.645 4.645 7 5.5 7H6.5C6.5 7 7 7 7 6.5C7 6 6.5 6 6.5 6H5.5C4.12 6 3 7.12 3 8.5C3 9.88 4.12 11 5.5 11H6.5C6.5 11 7 11 7 10.5C7 10 6.5 10 6.5 10H5.5C4.645 10 4 9.355 4 8.5ZM6 9H10C10 9 10.5 9 10.5 8.5C10.5 8 10 8 10 8H6C6 8 5.5 8 5.5 8.5C5.5 9 6 9 6 9ZM10.5 6H9.5C9.5 6 9 6 9 6.5C9 7 9.5 7 9.5 7H10.5C11.355 7 12 7.645 12 8.5C12 9.355 11.355 10 10.5 10H9.5C9.5 10 9 10 9 10.5C9 11 9.5 11 9.5 11H10.5C11.88 11 13 9.88 13 8.5C13 7.12 11.88 6 10.5 6Z" fill="#AFD8D8"/>
</svg>
