<svg width="32" height="32" viewBox="0 0 32 32" fill="none" xmlns="http://www.w3.org/2000/svg">
<path d="M1 30.9531C1 30.9531 3.49537 31.9657 6.34722 24.6289C9.19907 17.2921 11.2431 10.7009 13.4786 7.40757C15.7142 4.11419 17.8201 3.45702 19.6025 3.9629C21.3849 4.46878 22.0939 7.53959 20.7507 9.92274C15.9382 18.4612 8.37777 21.3619 8.37777 21.3619M8.37777 21.3619C8.37777 21.3619 14.6401 23.1106 12.6795 29.9411M8.37777 21.3619H21.8077M19.8624 29.9411C19.8624 29.9411 21.4264 21.5134 23.7729 16.6622C25.6468 12.7881 27.2695 10.323 29.007 8.66516M5 5.00047C8.5 1.50047 13 1.50047 13 1.50047H19C19 1.50047 23 1.00047 27 5.00047C31 9.00047 30.5 13.0005 30.5 13.0005V19.0005C30.5 19.0005 30.5 23.5005 27 27.0005C23.5 30.5005 19 30.5005 19 30.5005H13C13 30.5005 8.5 30.5005 5 27.0005C1.5 23.5005 1.5 19.0005 1.5 19.0005V13.0005" stroke="#111111" stroke-linecap="round" stroke-linejoin="round"/>
</svg>
