<svg width="20" height="20" viewBox="0 0 20 20" fill="none" xmlns="http://www.w3.org/2000/svg">
<path fill-rule="evenodd" clip-rule="evenodd" d="M11 16C14.8659 16 18 12.866 18 9C18 5.13401 14.8659 2 11 2C7.13396 2 3.99995 5.13401 3.99995 9C3.99995 12.866 7.13396 16 11 16ZM11 17C15.4182 17 19 13.4183 19 9C19 4.58172 15.4182 1 11 1C6.58168 1 2.99995 4.58172 2.99995 9C2.99995 11.0341 3.75907 12.8908 5.00946 14.3024L4.99995 14.2929L4.6464 14.6464L1.6464 17.6464C1.45114 17.8417 1.45114 18.1583 1.6464 18.3536C1.84166 18.5488 2.15824 18.5488 2.35351 18.3536L5.35351 15.3536L5.70706 15L5.69756 14.9905C7.10915 16.2409 8.9659 17 11 17ZM7.99995 8.5C7.72381 8.5 7.49995 8.72386 7.49995 9C7.49995 9.27614 7.72381 9.5 7.99995 9.5H11H14C14.2761 9.5 14.5 9.27614 14.5 9C14.5 8.72386 14.2761 8.5 14 8.5H11H7.99995Z" fill="#767676"/>
</svg>
