<svg width="20" height="20" viewBox="0 0 20 20" fill="none" xmlns="http://www.w3.org/2000/svg">
<path fill-rule="evenodd" clip-rule="evenodd" d="M11 16C14.8659 16 18 12.866 18 9C18 5.13401 14.8659 2 11 2C7.13396 2 3.99995 5.13401 3.99995 9C3.99995 12.866 7.13396 16 11 16ZM11 17C15.4182 17 19 13.4183 19 9C19 4.58172 15.4182 1 11 1C6.58168 1 2.99995 4.58172 2.99995 9C2.99995 11.0292 3.75546 12.882 5.00054 14.2923L1.6464 17.6464C1.45114 17.8417 1.45114 18.1583 1.6464 18.3536C1.84166 18.5488 2.15824 18.5488 2.35351 18.3536L5.70764 14.9994C7.11799 16.2445 8.97074 17 11 17ZM11.5 6C11.5 5.72386 11.2761 5.5 11 5.5C10.7238 5.5 10.5 5.72386 10.5 6V8.5H7.99995C7.72381 8.5 7.49995 8.72386 7.49995 9C7.49995 9.27614 7.72381 9.5 7.99995 9.5H10.5V12C10.5 12.2761 10.7238 12.5 11 12.5C11.2761 12.5 11.5 12.2761 11.5 12V9.5H14C14.2761 9.5 14.5 9.27614 14.5 9C14.5 8.72386 14.2761 8.5 14 8.5H11.5V6Z" fill="#767676"/>
</svg>
